<svg width="240" height="240" viewBox="0 0 240 240" fill="none" xmlns="http://www.w3.org/2000/svg">
<path d="M235 146.8L224.035 155.115L213.1 147.5C213.1 146.7 213.1 145.85 213.05 145C213.05 144.2 213.05 143.35 213 142.5C212.3 122.8 207.3 101.7 197.3 86.25C189.6 74.4 179.75 68.75 168.75 68.75C157.2 68.75 147.8 75.65 137.4 90.65C137.1 91.1 136.75 91.55 136.45 92.05C136.25 92.3 136.1 92.55 135.9 92.85C135.4 93.6 134.9 94.35 134.4 95.15C129.9 102.15 125.2 110.3 120.1 119.3C119.65 120.15 119.15 121 118.7 121.85C118.55 122.05 118.4 122.3 118.3 122.5L117.25 124.35L111.05 135.3C96.5 161.05 92.8 166.95 85.55 176.6C72.8 193.55 61.9 200 47.55 200C30.55 200 19.75 192.65 13.1 181.55C7.65 172.55 5 160.7 5 147.2L29.85 148.05C29.85 156.85 31.75 163.55 34.3 167.65C37.6 172.95 42.45 175 47.5 175C53.95 175 59.95 173.65 71.35 157.85C80.5 145.2 91.3 127.5 98.55 116.35L105.4 105.9L106.85 103.6L108.35 101.35L110.85 97.5C114.65 91.7 118.75 85.55 123.15 79.65C123.65 78.95 124.15 78.25 124.7 77.55C125.2 76.85 125.75 76.15 126.25 75.5C130.75 69.75 135.5 64.4 140.6 60C149.85 51.95 159.8 47.5 169.85 47.5C186.7 47.5 202.75 57.25 215.05 75.55C227.6 94.25 234.15 117.55 234.9 141.8C234.95 142.6 234.95 143.45 234.95 144.3C235 145.15 235 145.95 235 146.8Z" fill="#0081FB"/>
<path d="M24.5898 77.28C35.9748 59.755 52.4148 47.5 71.2648 47.5C82.1848 47.5 93.0348 50.725 104.37 59.965C116.765 70.065 129.98 86.695 146.465 114.105L152.375 123.94C166.645 147.67 174.76 159.875 179.515 165.635C185.625 173.03 189.44 175 195 175C209.1 175 213.085 162.3 213.085 147.495L235 146.81C235 162.285 231.945 173.655 226.745 182.635C221.725 191.32 211.935 200 195.465 200C185.225 200 176.155 197.78 166.125 188.335C158.415 181.085 149.4 168.205 142.465 156.63L121.835 122.235C111.485 104.975 101.99 92.1 96.4948 86.275C90.5848 80.005 83.2848 72.505 71.1598 72.505C61.3448 72.505 52.7148 79.315 45.7398 89.83L24.5898 77.28Z" fill="url(#paint0_linear_4131_972)"/>
<path d="M71.25 72.5C61.455 72.5 52.835 79.31 45.875 89.825C36.03 104.685 30 126.815 30 148.07C30 156.835 29.985 163.43 32.5 167.5L13.3 181.565C7.87 172.535 5 161 5 147.5C5 122.95 11.775 97.045 24.59 77.28C35.96 59.755 52.535 47.5 71.35 47.5L71.25 72.5Z" fill="url(#paint1_linear_4131_972)"/>
<path opacity="0.05" d="M108.35 101.35L106.85 103.6L105.4 105.9C108.95 111.05 113 117.25 117.25 124.35L118.3 122.5C118.4 122.3 118.55 122.05 118.7 121.85C119.15 121 119.65 120.15 120.1 119.3C115.95 112.5 111.95 106.45 108.35 101.35ZM124.7 77.55C124.15 78.25 123.65 78.95 123.15 79.65C126.8 84.2 130.5 89.35 134.4 95.15C134.9 94.35 135.4 93.6 135.9 92.85C136.1 92.55 136.25 92.3 136.45 92.05C136.75 91.55 137.1 91.1 137.4 90.65C133.6 85.05 129.9 80 126.25 75.5C125.75 76.15 125.2 76.85 124.7 77.55Z" fill="black"/>
<path opacity="0.07" d="M108.35 101.35L106.85 103.6C110.4 108.7 114.4 114.8 118.7 121.85C119.15 121 119.65 120.15 120.1 119.3C115.95 112.5 111.95 106.45 108.35 101.35ZM123.15 79.65C126.8 84.2 130.5 89.3501 134.4 95.1501C134.9 94.3501 135.4 93.6 135.9 92.85C132.05 87.15 128.3 82.05 124.7 77.55C124.15 78.25 123.65 78.95 123.15 79.65Z" fill="black"/>
<defs>
<linearGradient id="paint0_linear_4131_972" x1="211.52" y1="123.75" x2="67.6648" y2="123.75" gradientUnits="userSpaceOnUse">
<stop stop-color="#0081FB"/>
<stop offset="0.995" stop-color="#0064E1"/>
</linearGradient>
<linearGradient id="paint1_linear_4131_972" x1="38.175" y1="164.35" x2="38.175" y2="65.06" gradientUnits="userSpaceOnUse">
<stop stop-color="#0081FB"/>
<stop offset="0.995" stop-color="#0064E1"/>
</linearGradient>
</defs>
</svg>